<svg width="32" height="32" viewBox="0 0 32 32" fill="none" xmlns="http://www.w3.org/2000/svg">
<path d="M12.4613 6.48489C12.2926 6.34389 12.095 6.24169 11.8824 6.18553C11.6699 6.12937 11.4476 6.12062 11.2312 6.15989L3.73125 7.52364C3.38564 7.58658 3.07308 7.76883 2.84807 8.03861C2.62306 8.3084 2.49988 8.64859 2.5 8.99989V13.4999C2.5 13.8977 2.65804 14.2792 2.93934 14.5606C3.22064 14.8419 3.60218 14.9999 4 14.9999H11.5C11.8978 14.9999 12.2794 14.8419 12.5607 14.5606C12.842 14.2792 13 13.8977 13 13.4999V7.63614C13 7.41651 12.9517 7.19956 12.8586 7.00063C12.7655 6.8017 12.6299 6.62564 12.4613 6.48489ZM10 11.9999H5.5V10.2499L10 9.43239V11.9999ZM26.9613 3.84864C26.7926 3.70764 26.595 3.60544 26.3824 3.54928C26.1699 3.49312 25.9476 3.48437 25.7313 3.52364L16.2313 5.24989C15.8854 5.31287 15.5727 5.4953 15.3477 5.76534C15.1226 6.03538 14.9996 6.37588 15 6.72739V13.4999C15 13.8977 15.158 14.2792 15.4393 14.5606C15.7206 14.8419 16.1022 14.9999 16.5 14.9999H26C26.3978 14.9999 26.7794 14.8419 27.0607 14.5606C27.342 14.2792 27.5 13.8977 27.5 13.4999V4.99989C27.5 4.78026 27.4517 4.56331 27.3586 4.36438C27.2655 4.16545 27.1299 3.98939 26.9613 3.84864ZM24.5 11.9999H18V7.97864L24.5 6.79739V11.9999ZM11.5 16.9999H4C3.60218 16.9999 3.22064 17.1579 2.93934 17.4392C2.65804 17.7205 2.5 18.1021 2.5 18.4999V22.9999C2.49988 23.3512 2.62306 23.6914 2.84807 23.9612C3.07308 24.231 3.38564 24.4132 3.73125 24.4761L11.2312 25.8399C11.4475 25.8793 11.6697 25.8706 11.8823 25.8146C12.0948 25.7586 12.2924 25.6566 12.4612 25.5158C12.6299 25.3749 12.7656 25.1987 12.8587 24.9996C12.9519 24.8006 13.0001 24.5834 13 24.3636V18.4999C13 18.1021 12.842 17.7205 12.5607 17.4392C12.2794 17.1579 11.8978 16.9999 11.5 16.9999ZM10 22.5661L5.5 21.7499V19.9999H10V22.5661ZM26 16.9999H16.5C16.1022 16.9999 15.7206 17.1579 15.4393 17.4392C15.158 17.7205 15 18.1021 15 18.4999V25.2724C14.9996 25.6239 15.1226 25.9644 15.3477 26.2344C15.5727 26.5045 15.8854 26.6869 16.2313 26.7499L25.7313 28.4774C25.9476 28.5168 26.1699 28.5081 26.3826 28.4521C26.5952 28.396 26.7929 28.2938 26.9616 28.1529C27.1304 28.0119 27.2661 27.8355 27.3591 27.6363C27.4522 27.437 27.5003 27.2198 27.5 26.9999V18.4999C27.5 18.1021 27.342 17.7205 27.0607 17.4392C26.7794 17.1579 26.3978 16.9999 26 16.9999ZM24.5 25.2024L18 24.0211V19.9999H24.5V25.2024Z" fill="#5969FF"/>
</svg>
